<?xml version="1.0" encoding="utf-8"?>
<!-- Generator: Adobe Illustrator 27.1.1, SVG Export Plug-In . SVG Version: 6.00 Build 0)  -->
<svg version="1.1" id="图层_1" transform="matrix(1,0,0,1,0,0)" xmlns="http://www.w3.org/2000/svg"
    xmlns:xlink="http://www.w3.org/1999/xlink" x="0px" y="0px" viewBox="0 0 50 37"
    style="enable-background:new 0 0 50 37;" xml:space="preserve">
    <style type="text/css">
        .st0 {
            fill: #00E2EE;
        }

        .st1 {
            fill: #00CEED;
        }

        .st2 {
            fill: #06BBF1;
        }

        .st3 {
            fill: #2693EA;
        }

        .st4 {
            fill: #4C69E4;
        }

        .st5 {
            fill: #9561E8;
        }

        .st6 {
            fill: #E058EB;
        }
    </style>
    <g id="root">
        <g id="content" transform="matrix(1,0,0,1,1,33.75)">
            <g>
                <path id="prefix-LSD-Fill-3" class="st0" d="M16.5-29.9v8.7L-0.6,0.6C-0.8,0-1-0.5-1-1.1v-28.3c0-3.2,4.2-5.3,7.9-3.9L16.5-29.9z
				" />
                <path id="prefix-gB_-Fill-5" class="st1"
                    d="M16.5-21.2v20.5L6.9,2.8c-3,1.1-6.3-0.1-7.5-2.2L16.5-21.2z" />
                <path id="prefix-gRK-Fill-7" class="st2"
                    d="M29.1-13L20.4-2.4l-0.2,0.2l-3.9,1.5v-20.5l5.4-6.8l0.8,0.3L29.1-13z" />
                <path id="prefix-VV1-Fill-13" class="st3" d="M36.8-22.4L29.1-13l-6.7-14.7l14.3,5.1L36.8-22.4z" />
                <path id="prefix-j9Q-Fill-15" class="st4" d="M39.9-16.5L32-6.9l-2.9-6.3l7.7-9.4L39.9-16.5z" />
                <path id="prefix-m-H-Fill-17" class="st5"
                    d="M42.6-10.4L31.9-6.6l-0.1-0.1l-0.1-0.3l7.9-9.5L42.6-10.4z" />
                <path id="prefix-Z2_-Fill-21" class="st6"
                    d="M45.8-11.6l-3.2,1.1l-3-6l3.3-4l2.9,1C50.1-17.9,50.1-13.1,45.8-11.6" />
            </g>
            <g id="icon_name_and_slogan_gap">
            </g>
        </g>
    </g>
</svg>