<svg xmlns="http://www.w3.org/2000/svg" viewBox="0 0 54.59 63.31"><defs><style>.cls-1{fill:#0b8457;fill-rule:evenodd;}</style></defs><title>资源 1</title><g id="图层_2" data-name="图层 2"><g id="svg28"><path id="path26" class="cls-1" d="M18.75,6.55l-7.12,7.21-.65.65-.14.33a18.39,18.39,0,0,0-1.61,6.87A13.81,13.81,0,0,0,10,26.86a13.43,13.43,0,0,0,.57,1.47S13.85,25,17.89,21l7.34-7.34V0L18.75,6.55m10.63.28v6.82L36.71,21l7.34,7.34,0-.11A19.48,19.48,0,0,0,44.88,26a13.25,13.25,0,0,0,.47-4.93,18.52,18.52,0,0,0-1.56-6.36l-.12-.26L41.15,11.9,36.69,7.39,29.39,0s0,3.07,0,6.82M24.23,23.09c-.54,1.69-1,3.08-1,3.09l-.52.18-3.14,1-5.42,1.75L11.34,30a1.16,1.16,0,0,0,.13.29l.15.27,2.59.84L18.94,33l3.19,1,1.08.36s.41,1.21,1,3.09l1,3.08V20l-1,3.07m5.15,7.17c0,10.07,0,10.25,0,10.13l1-3.07c.53-1.63,1-3,1-3a2.54,2.54,0,0,1,.38-.14l9-2.91,2.12-.69a5.81,5.81,0,0,0,.31-.6l-2.4-.78-7.46-2.4-1.53-.5-.45-.14-1-3.06c-.54-1.67-1-3.06-1-3.08s0,4.58,0,10.21M5.17,21.32A40,40,0,0,0,1.85,27.7,24,24,0,0,0,0,35.29l0,.4.61.61L4,39.71,17.91,53.8l3.67,3.72,4.75,4.8,1,1,1-1L32,58.53c1.51-1.54,3.62-3.67,4.69-4.75l5.51-5.58,4.58-4.63c3.18-3.21,4.93-5,6.27-6.35l1.5-1.52v-.22a17.72,17.72,0,0,0-.38-2.93,32.12,32.12,0,0,0-3.93-9.64c-.39-.65-.82-1.37-1-1.7L49.09,21v.16c0,.09,0,.34,0,.56s0,.72.06,1.12a15.3,15.3,0,0,1-.13,2.82c-.54,3.83-2.52,8-6,12.69a114.49,114.49,0,0,1-9,10.25c-2.94,3.08-3.82,4.05-6.54,7.21l-.23.26s-.49-.55-1.06-1.21c-2.07-2.39-2.8-3.19-5.07-5.55a124.24,124.24,0,0,1-9.07-10.11c-4.14-5.32-6.32-10-6.66-14.4A21.1,21.1,0,0,1,5.53,21c0-.16,0-.3,0-.3s-.18.27-.39.61"/></g></g></svg>