<svg width="14" height="14" viewBox="0 0 14 14" xmlns="http://www.w3.org/2000/svg">
    <path d="M7.54184 3.08334L7.45851 3.08334L7.45851 3.00001L7.54184 3.00001L7.54184 3.08334Z" stroke="white"
        stroke-width="2" stroke-linecap="round" stroke-linejoin="round" />
    <path d="M7.5 10.0001L7.50025 6.00009" stroke="white" stroke-width="2" stroke-linecap="round"
        stroke-linejoin="round" />
    <g clip-path="url(#clip0_6_9647)">
        <path
            d="M7 12.8333C10.2218 12.8333 12.8333 10.2218 12.8333 7C12.8333 3.77825 10.2218 1.16667 7 1.16667C3.77825 1.16667 1.16667 3.77825 1.16667 7C1.16667 10.2218 3.77825 12.8333 7 12.8333ZM7 14C3.13425 14 0 10.8658 0 7C0 3.13425 3.13425 0 7 0C10.8658 0 14 3.13425 14 7C14 10.8658 10.8658 14 7 14Z"
            fill="#5F7292" />
        <path
            d="M7.12251 3.17334C6.27085 3.17334 5.59418 3.41834 5.10418 3.92001C4.60251 4.41001 4.35751 5.07501 4.35751 5.92667H5.59418C5.59418 5.41334 5.69918 5.00501 5.90918 4.72501C6.14251 4.39834 6.52751 4.23501 7.05251 4.23501C7.47251 4.23501 7.79918 4.35167 8.03251 4.58501C8.25418 4.81834 8.37085 5.13334 8.37085 5.54167C8.37085 5.84501 8.26585 6.12501 8.05585 6.39334L7.85751 6.61501C7.13418 7.25667 6.69085 7.73501 6.52751 8.06167C6.37585 8.36501 6.30585 8.73834 6.30585 9.17001V9.36834H7.55418V9.17001C7.55418 8.87834 7.61251 8.62167 7.74085 8.38834C7.84585 8.17834 8.00918 7.98001 8.21918 7.79334C8.77918 7.31501 9.10585 7.01167 9.21085 6.88334C9.49085 6.51001 9.64251 6.03167 9.64251 5.46001C9.64251 4.76001 9.40918 4.20001 8.95418 3.79167C8.48751 3.37167 7.88085 3.17334 7.12251 3.17334ZM6.92418 9.99834C6.67918 9.99834 6.48085 10.0683 6.32918 10.2317C6.15418 10.3833 6.07251 10.5817 6.07251 10.8267C6.07251 11.06 6.15418 11.2583 6.32918 11.4217C6.48085 11.585 6.67918 11.6667 6.92418 11.6667C7.15751 11.6667 7.36751 11.585 7.54251 11.4333C7.70585 11.27 7.78751 11.0717 7.78751 10.8267C7.78751 10.5817 7.70585 10.3833 7.54251 10.2317C7.37918 10.0683 7.16918 9.99834 6.92418 9.99834Z"
            fill="#5F7292" />
    </g>
    <defs>
        <clipPath id="clip0_6_9647">
            <rect width="14" height="14" fill="white" />
        </clipPath>
    </defs>
</svg>