<svg
   xmlns:dc="http://purl.org/dc/elements/1.1/"
   xmlns:cc="http://creativecommons.org/ns#"
   xmlns:rdf="http://www.w3.org/1999/02/22-rdf-syntax-ns#"
   xmlns:svg="http://www.w3.org/2000/svg"
   xmlns="http://www.w3.org/2000/svg"
   id="svg32"
   version="1.1"
   width="64"
  height="64"
   viewBox="0 0 1024 1024">
  <metadata
     id="metadata38">
    <rdf:RDF>
      <cc:Work
         rdf:about="">
        <dc:format>image/svg+xml</dc:format>
        <dc:type
           rdf:resource="http://purl.org/dc/dcmitype/StillImage" />
      </cc:Work>
    </rdf:RDF>
  </metadata>
  <defs
     id="defs36" />
  <svg
     height="100%"
     width="100%"
     id="svg2"
     version="1.1"
     viewBox="0 0 380 280" />
  
  <svg
     id="svg30"
     version="1.1"
     height="64"
     width="55.255878"
     y="108"
     x="89.559563">
    <svg
       height="100%"
       width="100%"
       id="svg28"
       version="1.1"
       viewBox="0 0 2534 2935">
      <path
         style="fill:#0b8457;fill-rule:evenodd;stroke:none"
         id="path26"
         d="M 874.575,317.038 C 711.266,482.292 564.333,631 548.055,647.5 l -29.594,30 -6.688,15 c -44.847,100.589 -68.551,201.843 -73.744,315 -3.927,85.569 6.28,159.208 33.373,240.775 8.728,26.278 24.862,67.725 26.362,67.725 0.405,0 152.275,-151.538 337.488,-336.752 L 1172.003,642.496 1171.752,329.536 1171.5,16.577 874.575,317.038 M 1362,329.751 v 312.75 l 336.391,336.39 336.391,336.39 2.131,-4.816 c 11.496,-25.989 26.954,-69.509 36.039,-101.465 21.658,-76.178 27.557,-138.192 21.498,-226 -7.215,-104.574 -32.054,-206.136 -71.343,-291.711 L 2017.5,679.077 1902,562.314 C 1838.475,498.094 1746.463,405.04 1697.53,355.526 1476.816,132.194 1362.78,17 1362.405,17 1362.182,17 1362,157.738 1362,329.751 m -235.859,745.918 c -24.947,77.457 -45.671,141.171 -46.054,141.586 -0.383,0.415 -11.022,4.074 -23.642,8.132 -12.62,4.058 -77.395,24.934 -143.945,46.392 -66.55,21.457 -178.6,57.554 -249,80.214 -70.4,22.659 -128.323,41.502 -128.718,41.872 -0.395,0.369 2.325,6.267 6.044,13.106 l 6.762,12.435 118.956,38.314 c 65.426,21.072 163.056,52.514 216.956,69.869 53.9,17.356 119.6,38.512 146,47.015 26.4,8.502 48.675,15.828 49.5,16.28 0.916,0.502 19.211,55.759 47,141.96 l 45.5,141.139 0.252,-235.073 c 0.139,-129.29 0.139,-340.598 0,-469.573 l -0.252,-234.5 -45.359,140.832 m 236.017,328.831 c 0,461.544 0.034,469.901 1.883,464.5 1.036,-3.025 21.512,-66.475 45.504,-141 23.992,-74.525 43.988,-135.882 44.436,-136.348 0.448,-0.466 8.173,-3.246 17.167,-6.176 35.658,-11.62 255.444,-82.475 413.761,-133.39 53.026,-17.053 96.753,-31.361 97.172,-31.795 1.963,-2.035 14.773,-26.824 14.139,-27.361 -0.396,-0.335 -49.77,-16.405 -109.72,-35.711 -252.183,-81.212 -295.405,-95.14 -342.5,-110.373 -27.225,-8.806 -58.709,-19.012 -69.965,-22.679 l -20.465,-6.667 -45.114,-140 c -24.813,-77 -45.38,-140.675 -45.706,-141.5 -0.326,-0.825 -0.592,210 -0.592,468.5 M 251.765,994.283 C 186.408,1098.865 137.177,1193.477 99.452,1287 49.637,1410.493 22.961,1521.623 15.947,1634.881 l -1.139,18.381 27.908,28.119 c 15.349,15.465 84.817,85.719 154.374,156.119 271.623,274.916 559.162,565.89 638.867,646.5 45.954,46.475 121.773,123.2 168.487,170.5 86.086,87.164 136.948,138.561 217.829,220.118 l 44.744,45.118 45.302,-45.618 c 24.915,-25.09 102.199,-103.211 171.741,-173.602 69.542,-70.391 166.265,-168.276 214.94,-217.521 48.675,-49.246 162.525,-164.449 253,-256.007 90.475,-91.559 184.977,-187.174 210.004,-212.479 145.548,-147.165 226.24,-228.786 287.527,-290.841 l 68.969,-69.833 -0.288,-10.167 c -1.021,-36.039 -7.456,-85.971 -17.317,-134.374 -27.894,-136.908 -87.248,-282.255 -180.452,-441.895 -17.601,-30.146 -37.495,-62.847 -47.583,-78.215 l -7.013,-10.684 0.593,7.5 c 0.326,4.125 1.258,15.6 2.072,25.5 0.814,9.9 2.007,33.211 2.65,51.801 1.635,47.236 -0.233,86.141 -6.197,129.1 -24.392,175.695 -115.247,367.082 -276.332,582.099 -96.194,128.401 -217.837,267.463 -411.127,470 -134.866,141.318 -174.957,185.517 -299.949,330.679 -5.532,6.424 -10.282,11.683 -10.557,11.688 -0.275,0 -22.1,-24.983 -48.5,-55.528 C 1123.837,2421.814 1090.376,2385.208 986.01,2277 778.56,2061.913 666.224,1936.629 570.355,1813.437 380.294,1569.208 280.42,1353.51 264.555,1153 c -3.97,-50.179 -2.6,-110.843 3.908,-172.979 0.776,-7.414 1.305,-13.587 1.174,-13.717 -0.131,-0.131 -8.173,12.46 -17.872,27.979" />
    </svg>
  </svg>
</svg>
