<svg
   xmlns:dc="http://purl.org/dc/elements/1.1/"
   xmlns:cc="http://creativecommons.org/ns#"
   xmlns:rdf="http://www.w3.org/1999/02/22-rdf-syntax-ns#"
   xmlns:svg="http://www.w3.org/2000/svg"
   xmlns="http://www.w3.org/2000/svg"
   id="svg32"
   version="1.1"
   viewBox="0 0  380 280">
  <metadata
     id="metadata38">
    <rdf:RDF>
      <cc:Work
         rdf:about="">
        <dc:format>image/svg+xml</dc:format>
        <dc:type
           rdf:resource="http://purl.org/dc/dcmitype/StillImage" />
      </cc:Work>
    </rdf:RDF>
  </metadata>
  <defs
     id="defs36" />
  <svg
     height="100%"
     width="100%"
     id="svg2"
     version="1.1"
     viewBox="0 0 380 280" />
  <g
     id="text4"
     style="font-size:40px;font-family:Dream-BeautyLongGB;fill:#05643f;fill-opacity:1"
     aria-label="V">
    <path
       id="path40"
       style="font-size:40px;font-family:Dream-BeautyLongGB;fill:#05643f;fill-opacity:1"
       d="m 175.43044,117.64188 q 0.4,0.87999 0.4,2.31999 0,1.24001 -0.28,2.4 -0.04,0.20001 -2.24,9.16 -2.16,8.96 -3.76,11.68 -0.52,0.8 -1.72,1.12 -1.2,0.32 -2.28,0.28 l -0.56,0.04 q -1.68,0 -2.6,-0.92 -0.88,-0.88 -1.2,-2.04 l -4.84,-23.19999 q -0.16,-1 -0.56,-1.24001 -0.36,-0.28 -0.4,-0.31999 0.52,-0.84001 1.6,-1.40001 1.12,-0.59999 2.68,-0.59999 1.52,0 2.36,0.72 0.84,0.68 1.04,1.71999 l 3,13.96 0.16,0.08 q 0.24,0.16 0.4,0.16 0.48,0 0.84,-0.96 0.44,-1.16 1.36,-5.36 0.24,-1.19999 0.28,-1.36 0,-0.19999 0.24,-0.19999 0.68,0.04 1.56,-0.2 0.88,-0.28 1.6,-1.16 0.8,-0.92001 0.8,-2.08001 0,-0.19999 -0.08,-0.75999 -0.2,-0.92 -0.96,-1.44 -0.72,-0.56 -1.48,-0.56 -0.24,0 -0.48,0.08 -0.68,0.28 -1,0.79999 -0.32,0.48001 -0.32,0.92001 0.04,0.48 0.2,0.79999 0.16,0.32 0.72,0.52001 0,0 0,0.04 0.04,0 0.04,0 h 0.08 q 0.2,0 0.24,-0.20001 0.04,-0.2 -0.16,-0.28 -0.44,-0.28 -0.44,-0.71999 0,-0.48001 0.28,-0.8 0.32,-0.32 0.76,-0.32 0.48,0 1,0.44 0.32,0.23999 0.44,0.64 0.12,0.36 0.12,0.52 0,1 -0.56,1.72 -0.8,1.03999 -2.16,1.03999 -0.88,0 -1.68,-0.47999 -0.76,-0.52001 -1.16,-1.48001 -0.32,-0.76 -0.32,-1.48 0,-1 0.44,-1.88 0.44,-0.92 1.16,-1.48 0.48,-0.44 1.32,-0.72 0.84,-0.31999 1.92,-0.31999 1.68,0 2.64,0.76 0.96,0.75999 1.56,2.04 z" />
  </g>
  <g
     id="text6"
     style="font-size:40px;font-family:Dream-BeautyLongGB;fill:#05643f;fill-opacity:1"
     aria-label="n">
    <path
       id="path43"
       style="font-size:40px;font-family:Dream-BeautyLongGB;fill:#05643f;fill-opacity:1"
       d="m 203.12044,132.68187 q 0.44,0.92 0.76,2.2 0.32,1.24 0.32,2.56 0,2.68 -1.36,4.84001 -1.36,2.15999 -4.96,2.15999 -0.56,0 -1.04,-0.12 -1.52,-0.36 -2.28,-1.84 -0.76,-1.52 -0.84,-3.4 l 0.04,-5.08 q 0,-2.44 -0.04,-3.24 -0.04,-1.68 -0.8,-2.32 -0.76,-0.67999 -2.44,-0.51999 -1.48,0.15999 -2.28,1.59999 0,7.12 -0.04,8.84 0.16,2.52 -0.76,4.32 -0.92,1.8 -3.2,1.8 -1.32,0 -2.16,-0.52 -0.8,-0.52 -1.44,-1.6 -0.64,-1.07999 -0.64,-2.44 0,-0.92 0.28,-1.63999 0.16,0.04 0.48,0.04 0.76,0 1.08,-0.4 0.44,-0.4 0.52,-1.28 v -7.72 q -0.44,0.12 -0.88,0.12 -1.04,0 -1.48,-0.68 -0.32,-0.51999 -0.32,-1.03999 0,-0.72 0.48,-1.36001 0.52,-0.63999 1.44,-0.96 0.04,0 0.56,-0.11999 0.56,-0.16001 1.16,-0.76 0.6,-0.64 0.76,-1.60001 0.08,-0.56 0.56,-0.8 0.48,-0.28 1.08,-0.28 0.52,0 0.84,0.16001 0.32,0.19999 0.68,0.72 0.36,0.47999 0.64,1.28 1.4,-0.92001 3.44,-1.16001 0.92,-0.11999 1.72,-0.11999 3.72,0 5.32,2 1.6,1.96 1.44,4.79999 v 3.4 q 0.16,0.52 0.48,0.8 0.24,0.16 0.68,0.16 1.04,0 2.2,-0.8 z" />
  </g>
  <g
     id="text8"
     style="font-size:40px;font-family:Dream-BeautyLongGB;fill:#05643f;fill-opacity:1"
     aria-label="a">
    <path
       id="path46"
       style="font-size:40px;font-family:Dream-BeautyLongGB;fill:#05643f;fill-opacity:1"
       d="m 228.30544,135.60187 q 0.4,0.36 0.64,1.16 0.28,0.8 0.28,1.92 0,2.64 -1.36,4.12 -1.36,1.48001 -3.56,1.48001 -1.72,0 -2.68,-1.32001 -0.92,-1.28 -1.12,-3.08 l -0.36,-2.64 q -0.16,-0.64 -0.72,-1.2 -0.52,-0.6 -1.6,-0.84 -0.4,-0.08 -0.72,-0.08 -0.56,0 -1.12,0.2 -0.56,0.2 -0.88,0.64 -0.48,0.52 -0.48,1.4 0,0.72 0.32,1.16 0.52,0.92 1.52,0.92 0.88,0 1.2,-0.28 0.32,-0.32 0.56,-0.96 0.04,-0.2 0.04,-0.52 l -0.04,-0.6 q 0.88,0.24 1.32,1 0.44,0.76 0.44,1.72 0,1.4 -0.72,2.44 -0.68,0.92 -1.96,1.4 -1.28,0.48 -2.72,0.48 -1.4,0 -2.32,-0.4 -1.04,-0.32 -2.04,-1.24 -0.96,-0.96 -1.52,-2.56 -0.44,-1.32 -0.44,-2.36 0,-1.96 1.28,-3.56 1.04,-1.28 2.56,-1.88 1.52,-0.6 3,-0.6 0.04,0 0.44,0 0.44,-0.04 2.04,-0.04 h 1.4 q 0.64,-0.16 1.12,-0.76 0.48,-0.6 0.48,-1.8 0,-1.31999 -0.56,-2.12 -0.56,-0.84 -1.16,-1.08 -0.56,-0.23999 -1.36,-0.23999 -0.68,0 -1.16,0.23999 -0.48,0.20001 -0.56,0.68 v 0.08 q 0,0.31999 0.16,0.51999 0.16,0.20001 0.36,0.24 0.32,0.16001 0.56,0.16001 0.2,0 0.32,-0.08 0.24,0.32 0.24,0.79999 0,0.6 -0.36,1.16001 -0.32,0.63999 -1.24,1.07999 -0.88,0.44 -2.04,0.44 -0.76,0 -1.6,-0.24 -1.52,-0.44 -2.24,-1.6 -0.72,-1.16 -0.72,-2.6 0,-0.95999 0.72,-1.95999 0.72,-1 2.52,-1.72001 1.84,-0.72 4.84,-0.72 4.36,0.04 6.16,1.48 1.84,1.44001 2.56,3.16001 v 0.04 q 0.52,1.15999 0.56,3.23999 v 5.72 q 0,0.44 0.16,0.72 0.2,0.28 0.48,0.28 0.24,0 0.52,-0.24 0.56,-0.52 0.56,-0.76 z" />
  </g>
  <g
     id="text10"
     style="font-size:40px;font-family:Dream-BeautyLongGB;fill:#05643f;fill-opacity:1"
     aria-label="i">
    <path
       id="path49"
       style="font-size:40px;font-family:Dream-BeautyLongGB;fill:#05643f;fill-opacity:1"
       d="m 236.30044,120.20188 q -0.68,-0.40001 -1.12,-1.08 -0.4,-0.68001 -0.4,-1.44001 0,-0.79999 0.4,-1.47999 0.44,-0.72 1.12,-1.12001 0.68,-0.39999 1.48,-0.39999 0.8,0 1.44,0.39999 0.68,0.40001 1.08,1.12001 0.44,0.68 0.44,1.47999 0,0.76 -0.44,1.44001 -0.4,0.67999 -1.08,1.08 -0.64,0.4 -1.44,0.4 -0.8,0 -1.48,-0.4 z m 5.2,10.15999 v 7.96 q 0,2.56 -0.84,4.36 -0.84,1.76 -3.04,1.76 -1.32,0 -2.12,-0.52 -0.8,-0.48 -1.44,-1.56 -0.64,-1.12 -0.64,-2.36 0,-0.96 0.32,-1.68 0.32,0.08 0.48,0.08 0.6,0 1.04,-0.36 0.4,-0.4 0.48,-1.2 v -7.64 q -0.4,0.12 -0.8,0.12 -1,0 -1.52,-0.72 -0.28,-0.48 -0.28,-0.99999 0,-0.80001 0.48,-1.48 0.52,-0.68001 1.36,-0.72 0.88,-0.16001 1.56,-0.76 0.68,-0.6 0.84,-1.68001 0.12,-0.55999 0.6,-0.8 0.48,-0.27999 1.04,-0.27999 0.56,0 0.84,0.19999 0.52,0.32001 1.04,1.32001 0.52,1 0.6,2.64 z" />
  </g>
  <g
     id="text12"
     style="font-size:40px;font-family:Dream-BeautyLongGB;fill:#05643f;fill-opacity:1"
     aria-label="v">
    <path
       id="path52"
       style="font-size:40px;font-family:Dream-BeautyLongGB;fill:#05643f;fill-opacity:1"
       d="m 266.87544,124.08187 q 1.4,2.28 1.4,4.88 0,1.28 -0.32,2.52 -0.28,1.2 -0.72,2.08 -1.36,-0.96 -2.72,-0.96 -0.32,0 -0.4,0.04 -0.96,0.36 -1.24,1.48 l -0.8,4.8 q -0.44,2.32 -1.92,3.96 -1.44,1.6 -3.84,1.6 -0.8,0 -1.56,-0.16 -1.4,-0.28 -2.2,-0.96 -0.76,-0.68 -0.96,-1.56 l -3.52,-12.84 q -0.48,0.12 -0.92,0.12 -1,0 -1.44,-0.6 -0.6,-0.91999 -0.6,-1.87999 0,-1.16001 1.08,-1.52001 0.84,-0.12 1.48,-0.75999 0.68,-0.68 0.8,-1.92 0.08,-0.64 0.6,-0.92 0.52,-0.28 1.16,-0.28 0.4,0 0.64,0.08 0.44,0.28 0.92,1.28 0.52,1 0.88,2.79999 0.88,3.52 3.32,12.2 l 0.08,-0.32 q 0.64,-2.52 1.8,-9.91999 0.12,-1.36001 0.6,-2.52001 0.4,-1.31999 1.24,-2.08 0.88,-0.79999 2.28,-0.79999 1.52,0 2.84,0.51999 1.32,0.48001 2.04,1.64 z" />
  </g>
  <g
     id="text14"
     style="font-size:40px;font-family:Dream-BeautyLongGB;fill:#05643f;fill-opacity:1"
     aria-label="e">
    <path
       id="path55"
       style="font-size:40px;font-family:Dream-BeautyLongGB;fill:#05643f;fill-opacity:1"
       d="m 282.10543,137.24187 q 1.08,0.48 2.28,0.48 1.64,0 3.24,-0.76 1.6,-0.76 2.44,-1.84 0.12,0.52 0.12,1.24 0,2.24 -1.32,4.44 -1.32,2.2 -5,3.2 -1.16,0.32 -2.48,0.32 -2.44,0 -4.24,-1.24 -1.8,-1.2 -2.8,-2.64 -0.96,-1.44 -1.32,-2.48 -0.76,-2.16 -0.76,-4.08 0,-3.56 2.28,-7.03999 1.72,-2.16001 3,-2.96001 1.16,-0.75999 2.56,-1.11999 1.4,-0.40001 2.52,-0.48 1.12,-0.08 1.32,-0.04 1.28,-0.04 2.64,0.56 1.36,0.60001 2.36,1.88 1.36,1.76 1.36,3.76 0,0.72 -0.2,1.8 -0.16,1.04001 -0.64,1.76 -0.28,0.72 -1.12,1.64 -0.84,0.88 -2.44,1.52 -1.64,0.64 -3.16,0.64 -1.92,0 -3.36,-0.92 1.08,1.56 2.72,2.36 z m 1.56,-7.4 q 0.12,-0.36 0.12,-0.76 0,-1.04 -0.68,-1.79999 -0.64,-0.8 -1.72,-0.8 -0.8,0 -1.64,0.64 -0.56,0.64 -0.84,1.31999 -0.04,0.16 -0.2,0.56 -0.12,0.36 -0.2,0.76 0.16,0.6 0.72,1.16 0.6,0.52 1.76,0.64 l 0.36,0.04 q 0.92,0 1.52,-0.52 0.64,-0.56 0.8,-1.24 z" />
  </g>
  <g
     id="text16"
     style="font-size:14px;font-family:'HelloFont ID WangZheFengFan';fill:#096c47;fill-opacity:1"
     aria-label="a">
    <path
       id="path58"
       style="font-size:14px;font-family:'HelloFont ID WangZheFengFan';fill:#096c47;fill-opacity:1"
       d="m 154.95719,163.16812 q 0,-0.924 0.658,-1.596 0.672,-0.672 2.03,-0.994 l 0.14,0.224 q -0.7,0.364 -0.938,0.784 -0.224,0.406 -0.224,0.938 0,0.308 0.21,0.644 0.21,0.322 0.546,0.53201 0.35,0.20999 0.7,0.20999 0.252,0 0.476,-0.126 v -4.088 q -0.252,0 -0.518,-0.35 -0.14,0.182 -0.392,0.308 -0.238,0.112 -0.532,0.112 -0.378,0 -0.728,-0.168 -0.336,-0.182 -0.378,-0.154 -0.126,0.084 -0.126,0.448 0,0.252 0.042,0.658 l -0.322,0.084 -0.742,-1.694 q 1.246,-0.462 1.96,-1.344 l 1.218,1.148 q 0.308,-0.182 0.658,-0.476 0.364,-0.294 0.658,-0.644 0.238,0.378 0.504,0.56 0.28,0.182 0.616,0.182 0.28,0 0.588,-0.098 0,0.462 -0.168,0.756 -0.154,0.294 -0.574,0.546 v 3.528 q 0,0.308 0.294,0.518 0.308,0.196 0.7,0.224 l -1.022,1.484 q -1.204,0.084 -1.708,-0.952 l -1.162,0.98 q -1.106,0 -1.792,-0.602 -0.672,-0.602 -0.672,-1.582 z" />
  </g>
  <g
     id="text18"
     style="font-size:14px;font-family:'HelloFont ID WangZheFengFan';fill:#096c47;fill-opacity:1"
     aria-label="d">
    <path
       id="path61"
       style="font-size:14px;font-family:'HelloFont ID WangZheFengFan';fill:#096c47;fill-opacity:1"
       d="m 193.01182,164.61012 -0.154,0.196 q -0.154,-0.028 -0.518,-0.028 -0.868,0 -1.848,0.266 -0.98,0.266 -1.344,0.616 -0.476,-0.48999 -1.12,-0.72799 -0.644,-0.238 -1.274,-0.238 v -5.23601 q -0.434,-0.336 -0.504,-0.84 0.588,0 1.12,-0.196 0.546,-0.20999 0.854,-0.602 l 2.044,1.05 v -4.116 l -0.7,-0.434 q 0.252,-0.07 0.462,-0.224 0.224,-0.168 0.28,-0.308 0.196,0.252 0.63,0.448 0.448,0.196 0.868,0.196 0.406,0 0.658,-0.21 l 0.266,0.35 q -0.224,0.084 -0.434,0.28 -0.21,0.196 -0.266,0.33601 v 8.72199 q 0.574,0.252 0.98,0.7 z m -2.744,-0.882 v -4.04599 l -0.882,-0.37801 q -0.084,0.14 -0.336,0.308 -0.238,0.168 -0.448,0.168 v 4.368 l 0.406,0.21 q 0.504,-0.476 1.26,-0.63 z" />
  </g>
  <g
     id="text20"
     style="font-size:14px;font-family:'HelloFont ID WangZheFengFan';fill:#096c47;fill-opacity:1"
     aria-label="m">
    <path
       id="path64"
       style="font-size:14px;font-family:'HelloFont ID WangZheFengFan';fill:#096c47;fill-opacity:1"
       d="m 218.41394,164.19012 0.686,-0.7 v -3.56999 q 0,-0.44801 -1.022,-0.68601 l 1.526,-1.806 q 0.56,0.238 0.924,0.658 0.378,0.406 0.504,0.98 l 2.03,-1.638 q 1.022,0.574 1.232,1.512 l 1.96,-1.428 q 0.714,0.924 1.148,0.924 0.364,0 0.854,-0.308 0,0.504 -0.098,0.77 -0.098,0.26601 -0.406,0.574 v 3.822 q 0,0.196 0.21,0.308 0.21,0.112 0.49,0.112 0.252,0 0.434,-0.084 l -1.778,1.778 q -0.518,0 -0.882,-0.392 -0.35,-0.378 -0.35,-0.966 v -4.2 q -0.224,-0.084 -0.476,-0.224 -0.238,-0.154 -0.378,-0.322 l -0.7,0.49 v 3.696 l 0.406,0.378 0.308,-0.182 0.28,0.392 q -0.56,0.35 -0.966,0.672 -0.392,0.322 -0.826,0.798 -0.378,-0.448 -0.854,-0.826 -0.462,-0.364 -0.798,-0.532 l 0.686,-0.7 v -3.5 q 0,-0.546 -0.476,-0.854 l -1.106,0.78401 v 3.56999 l 0.294,0.378 0.308,-0.182 0.28,0.392 q -0.56,0.35 -0.966,0.672 -0.392,0.322 -0.826,0.798 -0.378,-0.448 -0.854,-0.826 -0.462,-0.364 -0.798,-0.532 z" />
  </g>
  <g
     id="text22"
     style="font-size:14px;font-family:'HelloFont ID WangZheFengFan';fill:#096c47;fill-opacity:1"
     aria-label="i">
    <path
       id="path67"
       style="font-size:14px;font-family:'HelloFont ID WangZheFengFan';fill:#096c47;fill-opacity:1"
       d="m 253.96432,156.53212 1.582,-1.274 q 0.658,0.448 1.26,0.448 0.392,0 0.798,-0.182 -0.126,0.644 -0.658,1.05 -0.532,0.406 -1.218,0.406 -0.616,0 -1.148,-0.35 l -0.308,0.224 z m 0.21,7.504 0.672,-0.7 v -3.99 q -0.112,-0.056 -0.406,-0.28 l -0.238,0.168 -0.28,-0.336 1.666,-1.232 q 0.728,0.728 1.806,0.728 0.196,0 0.294,-0.014 -0.168,0.322 -0.476,0.574 -0.294,0.238 -0.616,0.378 v 4.004 l 0.378,0.378 0.294,-0.182 0.266,0.392 q -0.518,0.336 -0.91,0.658 -0.392,0.322 -0.84,0.812 -0.378,-0.434 -0.84,-0.812 -0.448,-0.378 -0.77,-0.546 z" />
  </g>
  <g
     id="text24"
     style="font-size:14px;font-family:'HelloFont ID WangZheFengFan';fill:#096c47;fill-opacity:1"
     aria-label="n">
    <path
       id="path70"
       style="font-size:14px;font-family:'HelloFont ID WangZheFengFan';fill:#096c47;fill-opacity:1"
       d="m 282.90318,164.19012 0.686,-0.7 v -3.5 q 0,-0.322 -0.224,-0.56 -0.224,-0.238 -0.756,-0.238 l 1.54,-1.764 q 1.022,0.574 1.232,1.512 l 2.282,-1.4 q 0.686,0.896 1.134,0.896 0.364,0 0.854,-0.308 0,0.504 -0.098,0.77 -0.098,0.26601 -0.406,0.574 v 3.822 q 0,0.196 0.21,0.308 0.21,0.112 0.49,0.112 0.252,0 0.434,-0.084 l -1.778,1.778 q -0.518,0 -0.882,-0.392 -0.35,-0.378 -0.35,-0.966 v -4.2 q -0.21,-0.084 -0.448,-0.266 -0.238,-0.182 -0.406,-0.434 l -0.952,0.644 v 3.696 l 0.294,0.378 0.308,-0.182 0.28,0.392 q -0.56,0.35 -0.966,0.672 -0.392,0.322 -0.826,0.798 -0.378,-0.448 -0.854,-0.826 -0.462,-0.364 -0.798,-0.532 z" />
  </g>
  <svg
     id="svg30"
     version="1.1"
     height="64"
     width="55.255878"
     y="108"
     x="89.559563">
    <svg
       height="100%"
       width="100%"
       id="svg28"
       version="1.1"
       viewBox="0 0 2534 2935">
      <path
         style="fill:#0b8457;fill-rule:evenodd;stroke:none"
         id="path26"
         d="M 874.575,317.038 C 711.266,482.292 564.333,631 548.055,647.5 l -29.594,30 -6.688,15 c -44.847,100.589 -68.551,201.843 -73.744,315 -3.927,85.569 6.28,159.208 33.373,240.775 8.728,26.278 24.862,67.725 26.362,67.725 0.405,0 152.275,-151.538 337.488,-336.752 L 1172.003,642.496 1171.752,329.536 1171.5,16.577 874.575,317.038 M 1362,329.751 v 312.75 l 336.391,336.39 336.391,336.39 2.131,-4.816 c 11.496,-25.989 26.954,-69.509 36.039,-101.465 21.658,-76.178 27.557,-138.192 21.498,-226 -7.215,-104.574 -32.054,-206.136 -71.343,-291.711 L 2017.5,679.077 1902,562.314 C 1838.475,498.094 1746.463,405.04 1697.53,355.526 1476.816,132.194 1362.78,17 1362.405,17 1362.182,17 1362,157.738 1362,329.751 m -235.859,745.918 c -24.947,77.457 -45.671,141.171 -46.054,141.586 -0.383,0.415 -11.022,4.074 -23.642,8.132 -12.62,4.058 -77.395,24.934 -143.945,46.392 -66.55,21.457 -178.6,57.554 -249,80.214 -70.4,22.659 -128.323,41.502 -128.718,41.872 -0.395,0.369 2.325,6.267 6.044,13.106 l 6.762,12.435 118.956,38.314 c 65.426,21.072 163.056,52.514 216.956,69.869 53.9,17.356 119.6,38.512 146,47.015 26.4,8.502 48.675,15.828 49.5,16.28 0.916,0.502 19.211,55.759 47,141.96 l 45.5,141.139 0.252,-235.073 c 0.139,-129.29 0.139,-340.598 0,-469.573 l -0.252,-234.5 -45.359,140.832 m 236.017,328.831 c 0,461.544 0.034,469.901 1.883,464.5 1.036,-3.025 21.512,-66.475 45.504,-141 23.992,-74.525 43.988,-135.882 44.436,-136.348 0.448,-0.466 8.173,-3.246 17.167,-6.176 35.658,-11.62 255.444,-82.475 413.761,-133.39 53.026,-17.053 96.753,-31.361 97.172,-31.795 1.963,-2.035 14.773,-26.824 14.139,-27.361 -0.396,-0.335 -49.77,-16.405 -109.72,-35.711 -252.183,-81.212 -295.405,-95.14 -342.5,-110.373 -27.225,-8.806 -58.709,-19.012 -69.965,-22.679 l -20.465,-6.667 -45.114,-140 c -24.813,-77 -45.38,-140.675 -45.706,-141.5 -0.326,-0.825 -0.592,210 -0.592,468.5 M 251.765,994.283 C 186.408,1098.865 137.177,1193.477 99.452,1287 49.637,1410.493 22.961,1521.623 15.947,1634.881 l -1.139,18.381 27.908,28.119 c 15.349,15.465 84.817,85.719 154.374,156.119 271.623,274.916 559.162,565.89 638.867,646.5 45.954,46.475 121.773,123.2 168.487,170.5 86.086,87.164 136.948,138.561 217.829,220.118 l 44.744,45.118 45.302,-45.618 c 24.915,-25.09 102.199,-103.211 171.741,-173.602 69.542,-70.391 166.265,-168.276 214.94,-217.521 48.675,-49.246 162.525,-164.449 253,-256.007 90.475,-91.559 184.977,-187.174 210.004,-212.479 145.548,-147.165 226.24,-228.786 287.527,-290.841 l 68.969,-69.833 -0.288,-10.167 c -1.021,-36.039 -7.456,-85.971 -17.317,-134.374 -27.894,-136.908 -87.248,-282.255 -180.452,-441.895 -17.601,-30.146 -37.495,-62.847 -47.583,-78.215 l -7.013,-10.684 0.593,7.5 c 0.326,4.125 1.258,15.6 2.072,25.5 0.814,9.9 2.007,33.211 2.65,51.801 1.635,47.236 -0.233,86.141 -6.197,129.1 -24.392,175.695 -115.247,367.082 -276.332,582.099 -96.194,128.401 -217.837,267.463 -411.127,470 -134.866,141.318 -174.957,185.517 -299.949,330.679 -5.532,6.424 -10.282,11.683 -10.557,11.688 -0.275,0 -22.1,-24.983 -48.5,-55.528 C 1123.837,2421.814 1090.376,2385.208 986.01,2277 778.56,2061.913 666.224,1936.629 570.355,1813.437 380.294,1569.208 280.42,1353.51 264.555,1153 c -3.97,-50.179 -2.6,-110.843 3.908,-172.979 0.776,-7.414 1.305,-13.587 1.174,-13.717 -0.131,-0.131 -8.173,12.46 -17.872,27.979" />
    </svg>
  </svg>
</svg>
