<?xml version="1.0" encoding="utf-8"?>
<!-- Generator: Adobe Illustrator 27.1.1, SVG Export Plug-In . SVG Version: 6.00 Build 0)  -->
<svg version="1.1" id="图层_1" transform="matrix(1,0,0,1,0,0)" xmlns="http://www.w3.org/2000/svg"
  xmlns:xlink="http://www.w3.org/1999/xlink" x="0px" y="0px" viewBox="0 0 70 37"
  style="enable-background:new 0 0 70 37;" xml:space="preserve">
  <style type="text/css">
    .st0 {
      fill: #00E2EE;
    }

    .st1 {
      fill: #00CEED;
    }

    .st2 {
      fill: #06BBF1;
    }

    .st3 {
      fill: #2693EA;
    }

    .st4 {
      fill: #4C69E4;
    }

    .st5 {
      fill: #9561E8;
    }

    .st6 {
      fill: #E058EB;
    }
  </style>
  <g id="root">
    <g id="content" transform="matrix(1,0,0,1,1,33.75)">
      <g>
        <path id="prefix-LSD-Fill-3" class="st0" d="M24.6-30.1v8.7L0.7,0.4C0.4-0.2,0.1-0.7,0.1-1.3v-28.3c0-3.2,5.9-5.3,11.1-3.9
				L24.6-30.1z" />
        <path id="prefix-gB_-Fill-5" class="st1" d="M24.6-21.4v20.5L11.2,2.6C7,3.7,2.3,2.5,0.7,0.4L24.6-21.4z" />
        <path id="prefix-gRK-Fill-7" class="st2"
          d="M42.2-13.2L30.1-2.6l-0.3,0.2l-5.5,1.5v-20.5l7.6-6.8l1.1,0.3L42.2-13.2z" />
        <path id="prefix-VV1-Fill-13" class="st3" d="M53-22.6l-10.8,9.4l-9.4-14.7l20,5.1L53-22.6z" />
        <path id="prefix-j9Q-Fill-15" class="st4" d="M57.3-16.7L46.3-7.1l-4.1-6.3L53-22.8L57.3-16.7z" />
        <path id="prefix-m-H-Fill-17" class="st5" d="M61.1-10.6l-15,3.8L46-6.9l-0.1-0.3l11.1-9.5L61.1-10.6z" />
        <path id="prefix-Z2_-Fill-21" class="st6"
          d="M65.6-11.8l-4.5,1.1l-4.2-6l4.6-4l4.1,1C71.6-18.1,71.6-13.3,65.6-11.8" />
      </g>
      <g id="icon_name_and_slogan_gap">
      </g>
    </g>
  </g>
</svg>