<svg xmlns="http://www.w3.org/2000/svg" viewBox="0 0 135.45 50.98"><defs><style>.cls-1{fill:#05643f;}.cls-2{fill:#096c47;}</style></defs><title>资源 2</title><g id="图层_2" data-name="图层 2"><g id="svg28"><g id="text4"><path id="path40" class="cls-1" d="M20.57,3A5.62,5.62,0,0,1,21,5.28a10,10,0,0,1-.28,2.4c0,.13-.77,3.19-2.24,9.16s-2.69,9.87-3.76,11.68A2.82,2.82,0,0,1,13,29.64a7.73,7.73,0,0,1-2.28.28l-.56,0A3.52,3.52,0,0,1,7.53,29a4.54,4.54,0,0,1-1.2-2L1.49,3.8C1.38,3.13,1.2,2.72.93,2.56l-.4-.32A4,4,0,0,1,2.13.84,5.61,5.61,0,0,1,4.81.24,3.52,3.52,0,0,1,7.17,1a2.83,2.83,0,0,1,1,1.72l3,14,.16.08a.74.74,0,0,0,.4.16q.48,0,.84-1A49.8,49.8,0,0,0,14,10.56c.16-.8.25-1.25.28-1.36s.08-.2.24-.2a4.83,4.83,0,0,0,1.56-.2,3.41,3.41,0,0,0,1.6-1.16,3.1,3.1,0,0,0,.8-2.08,7.46,7.46,0,0,0-.08-.76,2.25,2.25,0,0,0-1-1.44,2.4,2.4,0,0,0-1.48-.56,1.61,1.61,0,0,0-.48.08,2,2,0,0,0-1,.8,1.7,1.7,0,0,0-.32.92,2.18,2.18,0,0,0,.2.8,1.23,1.23,0,0,0,.72.52V6h.12a.25.25,0,0,0,.08-.48.85.85,0,0,1-.44-.72,1.15,1.15,0,0,1,.28-.8,1.05,1.05,0,0,1,.76-.32,1.6,1.6,0,0,1,1,.44,1.22,1.22,0,0,1,.44.64,1.88,1.88,0,0,1,.12.52A2.73,2.73,0,0,1,16.85,7a2.58,2.58,0,0,1-2.16,1A3.2,3.2,0,0,1,13,7.52,3.27,3.27,0,0,1,11.85,6a3.87,3.87,0,0,1-.32-1.48A4.19,4.19,0,0,1,12,2.68,4,4,0,0,1,13.13,1.2,3.73,3.73,0,0,1,14.45.48,5.44,5.44,0,0,1,16.37.16,4.13,4.13,0,0,1,19,.92a5.6,5.6,0,0,1,1.56,2Z"/></g><g id="text6"><path id="path43" class="cls-1" d="M48.26,18A11.71,11.71,0,0,1,49,20.2a10.38,10.38,0,0,1,.32,2.56A8.86,8.86,0,0,1,48,27.6q-1.36,2.16-5,2.16a4.3,4.3,0,0,1-1-.12A3.35,3.35,0,0,1,39.7,27.8a8.2,8.2,0,0,1-.84-3.4l0-5.08c0-1.63,0-2.71,0-3.24a3,3,0,0,0-.8-2.32,3.14,3.14,0,0,0-2.44-.52,2.87,2.87,0,0,0-2.28,1.6c0,4.75,0,7.69,0,8.84A8.22,8.22,0,0,1,32.54,28a3.29,3.29,0,0,1-3.2,1.8,4,4,0,0,1-2.16-.52,4.83,4.83,0,0,1-1.44-1.6,4.65,4.65,0,0,1-.64-2.44,4.44,4.44,0,0,1,.28-1.64,2,2,0,0,0,.48,0,1.29,1.29,0,0,0,1.08-.4A1.9,1.9,0,0,0,27.46,22V14.24a3.33,3.33,0,0,1-.88.12,1.63,1.63,0,0,1-1.48-.68,2,2,0,0,1-.32-1,2.24,2.24,0,0,1,.48-1.36,3.11,3.11,0,0,1,1.44-1l.56-.12a2.85,2.85,0,0,0,1.16-.76,3,3,0,0,0,.76-1.6,1,1,0,0,1,.56-.8,2.07,2.07,0,0,1,1.08-.28,1.82,1.82,0,0,1,.84.16,2.51,2.51,0,0,1,.68.72A4.91,4.91,0,0,1,33,8.92a7.87,7.87,0,0,1,3.44-1.16,13.34,13.34,0,0,1,1.72-.12q3.72,0,5.32,2a6.69,6.69,0,0,1,1.44,4.8v3.4a1.75,1.75,0,0,0,.48.8,1.2,1.2,0,0,0,.68.16,3.94,3.94,0,0,0,2.2-.8Z"/></g><g id="text8"><path id="path46" class="cls-1" d="M73.45,20.92a2.58,2.58,0,0,1,.64,1.16A6,6,0,0,1,74.37,24,5.9,5.9,0,0,1,73,28.12a4.61,4.61,0,0,1-3.56,1.48,3.12,3.12,0,0,1-2.68-1.32,6.27,6.27,0,0,1-1.12-3.08l-.36-2.64a2.61,2.61,0,0,0-.72-1.2,2.88,2.88,0,0,0-1.6-.84,4.05,4.05,0,0,0-.72-.08,3.35,3.35,0,0,0-1.12.2,1.76,1.76,0,0,0-.88.64,2,2,0,0,0-.48,1.4,1.88,1.88,0,0,0,.32,1.16,1.65,1.65,0,0,0,1.52.92,1.88,1.88,0,0,0,1.2-.28,2.67,2.67,0,0,0,.56-1,3.44,3.44,0,0,0,0-.52l0-.6a2.12,2.12,0,0,1,1.32,1,3.41,3.41,0,0,1,.44,1.72,4.18,4.18,0,0,1-.72,2.44,4.26,4.26,0,0,1-2,1.4,7.71,7.71,0,0,1-2.72.48,5.75,5.75,0,0,1-2.32-.4,5.29,5.29,0,0,1-2-1.24,6.6,6.6,0,0,1-1.52-2.56,7.39,7.39,0,0,1-.44-2.36,5.52,5.52,0,0,1,1.28-3.56,6.13,6.13,0,0,1,2.56-1.88,8.1,8.1,0,0,1,3-.6h.44c.29,0,1,0,2,0h1.4A2.11,2.11,0,0,0,65.25,16a2.84,2.84,0,0,0,.48-1.8,3.64,3.64,0,0,0-.56-2.12A2.75,2.75,0,0,0,64,11a3.48,3.48,0,0,0-1.36-.24,2.55,2.55,0,0,0-1.16.24.85.85,0,0,0-.56.68v.08a.79.79,0,0,0,.16.52.61.61,0,0,0,.36.24,1.23,1.23,0,0,0,.56.16.61.61,0,0,0,.32-.08,1.29,1.29,0,0,1,.24.8,2.11,2.11,0,0,1-.36,1.16A2.54,2.54,0,0,1,61,15.68a4.57,4.57,0,0,1-2,.44,5.81,5.81,0,0,1-1.6-.24,3.71,3.71,0,0,1-2.24-1.6,4.82,4.82,0,0,1-.72-2.6,3.37,3.37,0,0,1,.72-2A5.54,5.54,0,0,1,57.61,8a13.49,13.49,0,0,1,4.84-.72c2.9,0,5,.52,6.16,1.48a8,8,0,0,1,2.56,3.16v0a8.7,8.7,0,0,1,.56,3.24v5.72a1.42,1.42,0,0,0,.16.72.56.56,0,0,0,.48.28.84.84,0,0,0,.52-.24c.37-.35.56-.6.56-.76Z"/></g><g id="text10"><path id="path49" class="cls-1" d="M81.44,5.52a3.4,3.4,0,0,1-1.12-1.08A2.75,2.75,0,0,1,79.92,3a2.84,2.84,0,0,1,.4-1.48A3.24,3.24,0,0,1,81.44.4,2.84,2.84,0,0,1,82.92,0a2.65,2.65,0,0,1,1.44.4,3,3,0,0,1,1.08,1.12A2.7,2.7,0,0,1,85.88,3a2.62,2.62,0,0,1-.44,1.44,3.1,3.1,0,0,1-1.08,1.08,2.65,2.65,0,0,1-1.44.4A2.84,2.84,0,0,1,81.44,5.52Zm5.2,10.16v8A10.24,10.24,0,0,1,85.8,28a3.07,3.07,0,0,1-3,1.76,3.8,3.8,0,0,1-2.12-.52,4.4,4.4,0,0,1-1.44-1.56,4.65,4.65,0,0,1-.64-2.36,4.16,4.16,0,0,1,.32-1.68,2.34,2.34,0,0,0,.48.08,1.59,1.59,0,0,0,1-.36,1.89,1.89,0,0,0,.48-1.2V14.52a2.77,2.77,0,0,1-.8.12,1.76,1.76,0,0,1-1.52-.72,1.92,1.92,0,0,1-.28-1,2.51,2.51,0,0,1,.48-1.48,1.77,1.77,0,0,1,1.36-.72A3.18,3.18,0,0,0,81.68,10a2.71,2.71,0,0,0,.84-1.68,1.11,1.11,0,0,1,.6-.8,2,2,0,0,1,1-.28,1.49,1.49,0,0,1,.84.2,3.28,3.28,0,0,1,1,1.32,6.35,6.35,0,0,1,.6,2.64Z"/></g><g id="text12"><path id="path52" class="cls-1" d="M112,9.4a9.2,9.2,0,0,1,1.4,4.88,10.24,10.24,0,0,1-.32,2.52,9.9,9.9,0,0,1-.72,2.08,4.72,4.72,0,0,0-2.72-1,1.05,1.05,0,0,0-.4,0A2,2,0,0,0,108,19.44l-.8,4.8a8.09,8.09,0,0,1-1.92,4,4.9,4.9,0,0,1-3.84,1.6,7.24,7.24,0,0,1-1.56-.16,4.82,4.82,0,0,1-2.2-1,2.89,2.89,0,0,1-1-1.56L93.22,14.28a3.81,3.81,0,0,1-.92.12,1.66,1.66,0,0,1-1.44-.6,3.4,3.4,0,0,1-.6-1.88,1.46,1.46,0,0,1,1.08-1.52,2.56,2.56,0,0,0,1.48-.76,3,3,0,0,0,.8-1.92,1.12,1.12,0,0,1,.6-.92,2.34,2.34,0,0,1,1.16-.28A2.22,2.22,0,0,1,96,6.6a3.17,3.17,0,0,1,.92,1.28,11.17,11.17,0,0,1,.88,2.8q.87,3.52,3.32,12.2l.08-.32q.63-2.52,1.8-9.92a8.46,8.46,0,0,1,.6-2.52A4.44,4.44,0,0,1,104.86,8a3.25,3.25,0,0,1,2.28-.8,7.62,7.62,0,0,1,2.84.52,3.91,3.91,0,0,1,2,1.64Z"/></g><g id="text14"><path id="path55" class="cls-1" d="M127.25,22.56a5.55,5.55,0,0,0,2.28.48,7.46,7.46,0,0,0,3.24-.76,6.7,6.7,0,0,0,2.44-1.84,5.6,5.6,0,0,1,.12,1.24A8.57,8.57,0,0,1,134,26.12c-.88,1.47-2.55,2.53-5,3.2a9.47,9.47,0,0,1-2.48.32,7.26,7.26,0,0,1-4.24-1.24,10.2,10.2,0,0,1-2.8-2.64,11.52,11.52,0,0,1-1.32-2.48,12.23,12.23,0,0,1-.76-4.08,12.74,12.74,0,0,1,2.28-7,12.92,12.92,0,0,1,3-3,8.31,8.31,0,0,1,2.56-1.12,12,12,0,0,1,2.52-.48,8.32,8.32,0,0,1,1.32,0,6,6,0,0,1,2.64.56A6.22,6.22,0,0,1,134.09,10a6.08,6.08,0,0,1,1.36,3.76,10.55,10.55,0,0,1-.2,1.8,4.38,4.38,0,0,1-.64,1.76A5.63,5.63,0,0,1,133.49,19a6.91,6.91,0,0,1-2.44,1.52,8.65,8.65,0,0,1-3.16.64,6.13,6.13,0,0,1-3.36-.92,6.93,6.93,0,0,0,2.72,2.36Zm1.56-7.4a2.37,2.37,0,0,0,.12-.76,2.64,2.64,0,0,0-.68-1.8,2.1,2.1,0,0,0-1.72-.8,2.69,2.69,0,0,0-1.64.64,4.57,4.57,0,0,0-.84,1.32c0,.11-.1.29-.2.56a5.62,5.62,0,0,0-.2.76,2.49,2.49,0,0,0,.72,1.16,3.09,3.09,0,0,0,1.76.64l.36,0A2.23,2.23,0,0,0,128,16.4a2.44,2.44,0,0,0,.8-1.24Z"/></g><g id="text16"><path id="path58" class="cls-2" d="M.1,48.49a2.21,2.21,0,0,1,.66-1.6,4.07,4.07,0,0,1,2-1l.14.22A2.18,2.18,0,0,0,2,46.9a1.92,1.92,0,0,0-.23.94,1.24,1.24,0,0,0,.21.65,1.86,1.86,0,0,0,.55.53,1.35,1.35,0,0,0,.7.21.91.91,0,0,0,.48-.13V45a.7.7,0,0,1-.52-.35,1.1,1.1,0,0,1-.39.31,1.19,1.19,0,0,1-.54.11,1.64,1.64,0,0,1-.72-.16c-.23-.13-.35-.18-.38-.16S1,45,1,45.21s0,.39,0,.66L.74,46,0,44.26a4.47,4.47,0,0,0,2-1.35l1.22,1.15a6.45,6.45,0,0,0,.66-.47,4.44,4.44,0,0,0,.65-.65A1.88,1.88,0,0,0,5,43.5a1.09,1.09,0,0,0,.61.18,2.06,2.06,0,0,0,.59-.09,1.41,1.41,0,0,1-.17.75,1.44,1.44,0,0,1-.57.55v3.53a.62.62,0,0,0,.29.51,1.53,1.53,0,0,0,.7.23l-1,1.48a1.62,1.62,0,0,1-1.71-1l-1.16,1a2.62,2.62,0,0,1-1.79-.6A2,2,0,0,1,.1,48.49Z"/></g><g id="text18"><path id="path61" class="cls-2" d="M38.15,49.93l-.15.19-.52,0a7,7,0,0,0-1.85.26,3.15,3.15,0,0,0-1.34.62,3,3,0,0,0-1.12-.73A3.66,3.66,0,0,0,31.89,50V44.78a1.33,1.33,0,0,1-.5-.84,3.22,3.22,0,0,0,1.12-.2,1.93,1.93,0,0,0,.85-.6l2,1V40.07l-.7-.43a1.33,1.33,0,0,0,.46-.23.83.83,0,0,0,.28-.3,1.7,1.7,0,0,0,.63.44,2.19,2.19,0,0,0,.87.2,1,1,0,0,0,.66-.21l.26.35a1.38,1.38,0,0,0-.43.28,1,1,0,0,0-.27.34v8.72a2.79,2.79,0,0,1,1,.7Zm-2.74-.88V45l-.88-.38a1,1,0,0,1-.34.31.82.82,0,0,1-.45.17v4.37l.41.21A2.44,2.44,0,0,1,35.41,49.05Z"/></g><g id="text20"><path id="path64" class="cls-2" d="M63.55,49.51l.69-.7V45.24q0-.45-1-.69l1.52-1.8a2.33,2.33,0,0,1,.93.65,2,2,0,0,1,.5,1l2-1.63a2.29,2.29,0,0,1,1.23,1.51l2-1.43c.48.62.86.92,1.15.92a1.71,1.71,0,0,0,.86-.3,2.52,2.52,0,0,1-.1.77,1.81,1.81,0,0,1-.41.57v3.82a.34.34,0,0,0,.21.31,1.1,1.1,0,0,0,.49.11A1.15,1.15,0,0,0,74,49l-1.78,1.78a1.12,1.12,0,0,1-.88-.4,1.32,1.32,0,0,1-.35-1v-4.2a3.44,3.44,0,0,1-.48-.23,1.78,1.78,0,0,1-.38-.32l-.7.49v3.7l.41.38.31-.19.28.4a8.51,8.51,0,0,0-1,.67,7.57,7.57,0,0,0-.83.8,5.57,5.57,0,0,0-.85-.83,4.74,4.74,0,0,0-.8-.53l.69-.7v-3.5a1,1,0,0,0-.48-.86l-1.1.79v3.57l.29.38.31-.19.28.4a9.51,9.51,0,0,0-1,.67,7.55,7.55,0,0,0-.82.8,6.15,6.15,0,0,0-.86-.83,4.74,4.74,0,0,0-.8-.53Z"/></g><g id="text22"><path id="path67" class="cls-2" d="M99.11,41.85l1.58-1.27A2.31,2.31,0,0,0,102,41a2,2,0,0,0,.8-.18,1.74,1.74,0,0,1-.66,1,2,2,0,0,1-1.22.41A2.1,2.1,0,0,1,99.72,42l-.31.22Zm.21,7.5.67-.7v-4a2.46,2.46,0,0,1-.41-.28l-.24.17-.28-.33L100.73,43a2.43,2.43,0,0,0,1.81.73h.29a1.83,1.83,0,0,1-.48.57,2.47,2.47,0,0,1-.61.38v4l.38.38.29-.18.27.39c-.35.23-.65.45-.91.66a6.94,6.94,0,0,0-.84.81,8,8,0,0,0-.84-.81,5.51,5.51,0,0,0-.77-.55Z"/></g><g id="text24"><path id="path70" class="cls-2" d="M128,49.51l.69-.7v-3.5a.78.78,0,0,0-.22-.56,1,1,0,0,0-.76-.24l1.54-1.76a2.29,2.29,0,0,1,1.23,1.51l2.28-1.4c.46.6.84.89,1.14.89a1.68,1.68,0,0,0,.85-.3,2.24,2.24,0,0,1-.1.77,1.76,1.76,0,0,1-.4.57v3.82a.34.34,0,0,0,.21.31A1.07,1.07,0,0,0,135,49a1.1,1.1,0,0,0,.43-.08l-1.78,1.78a1.14,1.14,0,0,1-.88-.4,1.37,1.37,0,0,1-.35-1v-4.2a2.23,2.23,0,0,1-.45-.27,1.83,1.83,0,0,1-.4-.43l-.95.64v3.7l.29.38.31-.19.28.4a8.51,8.51,0,0,0-1,.67,7.55,7.55,0,0,0-.82.8,6.15,6.15,0,0,0-.86-.83,4.74,4.74,0,0,0-.8-.53Z"/></g></g></g></svg>