<svg width="32" height="32" xmlns="http://www.w3.org/2000/svg" version="1.1">
 <metadata id="metadata38">image/svg+xml</metadata>

 <g>
  <title>Layer 1</title>
  <g id="svg_2">
   <svg height="100%" width="100%" id="svg_6" version="1.1" viewBox="0 0 380 280"/>
  </g>
  <metadata stroke="null" id="svg_16">image/svg+xml</metadata>
  <g stroke="null" transform="matrix(1.73267 0 0 1.72663 -65.854 -78.739)" id="svg_25">
   <svg stroke="null" y="-62.75883" x="-51.87517" height="100%" width="100%" id="svg_7" version="1.1" viewBox="0 0 380 280"/>
  </g>
  <g stroke="null" transform="matrix(0.58394 0 0 0.50114 -22.8668 -23.5632)" id="svg_26">
   <svg stroke="null" id="svg_10" version="1.1" height="64" width="55.25588" y="47.23662" x="39.44888">
    <g stroke="null" id="svg_11">
     <svg stroke="null" height="100%" width="100%" id="svg_14" version="1.1" viewBox="0 0 2534 2935">
      <path stroke="null" id="svg_15" d="m874.575,317.038c-163.309,165.254 -310.242,313.962 -326.52,330.462l-29.594,30l-6.688,15c-44.847,100.589 -68.551,201.843 -73.744,315c-3.927,85.569 6.28,159.208 33.373,240.775c8.728,26.278 24.862,67.725 26.362,67.725c0.405,0 152.275,-151.538 337.488,-336.752l336.751,-336.752l-0.251,-312.96l-0.252,-312.959l-296.925,300.461m487.425,12.713l0,312.75l336.391,336.39l336.391,336.39l2.131,-4.816c11.496,-25.989 26.954,-69.509 36.039,-101.465c21.658,-76.178 27.557,-138.192 21.498,-226c-7.215,-104.574 -32.054,-206.136 -71.343,-291.711l-5.607,-12.212l-115.5,-116.763c-63.525,-64.22 -155.537,-157.274 -204.47,-206.788c-220.714,-223.332 -334.75,-338.526 -335.125,-338.526c-0.223,0 -0.405,140.738 -0.405,312.751m-235.859,745.918c-24.947,77.457 -45.671,141.171 -46.054,141.586c-0.383,0.415 -11.022,4.074 -23.642,8.132c-12.62,4.058 -77.395,24.934 -143.945,46.392c-66.55,21.457 -178.6,57.554 -249,80.214c-70.4,22.659 -128.323,41.502 -128.718,41.872c-0.395,0.369 2.325,6.267 6.044,13.106l6.762,12.435l118.956,38.314c65.426,21.072 163.056,52.514 216.956,69.869c53.9,17.356 119.6,38.512 146,47.015c26.4,8.502 48.675,15.828 49.5,16.28c0.916,0.502 19.211,55.759 47,141.96l45.5,141.139l0.252,-235.073c0.139,-129.29 0.139,-340.598 0,-469.573l-0.252,-234.5l-45.359,140.832m236.017,328.831c0,461.544 0.034,469.901 1.883,464.5c1.036,-3.025 21.512,-66.475 45.504,-141c23.992,-74.525 43.988,-135.882 44.436,-136.348c0.448,-0.466 8.173,-3.246 17.167,-6.176c35.658,-11.62 255.444,-82.475 413.761,-133.39c53.026,-17.053 96.753,-31.361 97.172,-31.795c1.963,-2.035 14.773,-26.824 14.139,-27.361c-0.396,-0.335 -49.77,-16.405 -109.72,-35.711c-252.183,-81.212 -295.405,-95.14 -342.5,-110.373c-27.225,-8.806 -58.709,-19.012 -69.965,-22.679l-20.465,-6.667l-45.114,-140c-24.813,-77 -45.38,-140.675 -45.706,-141.5c-0.326,-0.825 -0.592,210 -0.592,468.5m-1110.393,-410.217c-65.357,104.582 -114.588,199.194 -152.313,292.717c-49.815,123.493 -76.491,234.623 -83.505,347.881l-1.139,18.381l27.908,28.119c15.349,15.465 84.817,85.719 154.374,156.119c271.623,274.916 559.162,565.89 638.867,646.5c45.954,46.475 121.773,123.2 168.487,170.5c86.086,87.164 136.948,138.561 217.829,220.118l44.744,45.118l45.302,-45.618c24.915,-25.09 102.199,-103.211 171.741,-173.602c69.542,-70.391 166.265,-168.276 214.94,-217.521c48.675,-49.246 162.525,-164.449 253,-256.007c90.475,-91.559 184.977,-187.174 210.004,-212.479c145.548,-147.165 226.24,-228.786 287.527,-290.841l68.969,-69.833l-0.288,-10.167c-1.021,-36.039 -7.456,-85.971 -17.317,-134.374c-27.894,-136.908 -87.248,-282.255 -180.452,-441.895c-17.601,-30.146 -37.495,-62.847 -47.583,-78.215l-7.013,-10.684l0.593,7.5c0.326,4.125 1.258,15.6 2.072,25.5c0.814,9.9 2.007,33.211 2.65,51.801c1.635,47.236 -0.233,86.141 -6.197,129.1c-24.392,175.695 -115.247,367.082 -276.332,582.099c-96.194,128.401 -217.837,267.463 -411.127,470c-134.866,141.318 -174.957,185.517 -299.949,330.679c-5.532,6.424 -10.282,11.683 -10.557,11.688c-0.275,0 -22.1,-24.983 -48.5,-55.528c-94.663,-109.525 -128.124,-146.131 -232.49,-254.339c-207.45,-215.087 -319.786,-340.371 -415.655,-463.563c-190.061,-244.229 -289.935,-459.927 -305.8,-660.437c-3.97,-50.179 -2.6,-110.843 3.908,-172.979c0.776,-7.414 1.305,-13.587 1.174,-13.717c-0.131,-0.131 -8.173,12.46 -17.872,27.979" fill="#0b8457" fill-rule="evenodd"/>
     </svg>
    </g>
   </svg>
  </g>
 </g>
</svg>